<?xml version="1.0" standalone="no"?>
<!DOCTYPE svg PUBLIC "-//W3C//DTD SVG 20010904//EN"
 "http://www.w3.org/TR/2001/REC-SVG-20010904/DTD/svg10.dtd">
<svg version="1.0" xmlns="http://www.w3.org/2000/svg"
 width="640.000000pt" height="640.000000pt" viewBox="0 0 640.000000 640.000000"
 preserveAspectRatio="xMidYMid meet">

<g transform="translate(0.000000,640.000000) scale(0.100000,-0.100000)"
fill="#000000" stroke="none">
<path d="M2616 4780 c-122 -22 -235 -109 -293 -228 -25 -52 -28 -67 -28 -167
0 -104 2 -114 32 -175 95 -193 306 -277 506 -200 81 30 168 113 210 199 30 62
32 73 32 171 0 97 -2 110 -31 170 -37 79 -78 128 -142 169 -88 56 -189 78
-286 61z"/>
<path d="M3748 4320 c-21 -5 -91 -36 -156 -69 -137 -68 -306 -141 -507 -217
-77 -30 -130 -54 -119 -54 40 0 327 104 509 185 129 56 30 3 -150 -82 -104
-49 -201 -95 -215 -101 -22 -10 -16 -12 40 -9 58 3 140 29 321 102 11 4 18 0
22 -14 10 -39 46 -24 124 49 79 76 128 110 156 110 23 0 22 -9 -5 -37 l-21
-23 34 0 c19 0 57 8 84 19 70 26 131 35 140 21 4 -7 2 -23 -5 -36 -11 -19 -24
-25 -72 -30 -75 -8 -72 -27 5 -34 66 -6 76 -18 30 -34 -50 -17 -39 -31 24 -33
79 -4 123 -12 123 -23 0 -6 -30 -25 -67 -42 -81 -39 -100 -67 -83 -125 23 -81
20 -81 187 -25 81 27 171 59 198 70 28 12 58 23 68 26 14 5 17 18 17 89 l0 83
-67 18 c-101 26 -246 90 -316 137 -34 23 -80 50 -103 61 -51 22 -145 31 -196
18z"/>
<path d="M1940 4016 l0 -123 54 -52 55 -51 81 0 81 0 129 83 c71 45 130 84
130 87 0 3 -87 38 -192 79 -106 40 -209 79 -228 87 -19 7 -52 13 -72 14 l-38
0 0 -124z"/>
<path d="M2239 3773 c-193 -134 -253 -180 -243 -188 9 -7 16 -78 25 -264 7
-140 14 -251 16 -245 1 5 12 112 23 238 11 127 22 231 23 231 1 1 383 -14 849
-34 l846 -35 6 -116 c3 -63 9 -204 12 -313 l6 -198 -58 3 -59 3 -3 163 -2 162
-100 0 -100 0 0 -155 0 -155 -32 0 c-18 0 -70 3 -115 7 l-83 6 0 156 c-1 202
-18 246 -113 286 -62 26 -133 14 -188 -32 -49 -42 -57 -73 -60 -236 l-2 -147
-83 0 c-45 0 -89 3 -98 6 -14 5 -16 29 -16 160 l0 154 -85 0 -85 0 0 -150 0
-150 -50 0 -50 0 0 150 0 150 -65 0 -64 0 -3 -142 -3 -143 -65 2 c-52 2 5 -14
290 -82 l355 -84 783 -1 c431 0 781 4 778 8 -3 5 -49 21 -102 37 l-97 29 6
155 c4 86 7 234 7 329 l0 172 30 0 c17 0 30 3 30 8 0 4 -117 89 -260 190
l-259 183 -100 -3 -100 -3 89 -164 c50 -90 90 -168 90 -174 0 -5 -48 -6 -117
-2 -155 8 -1450 55 -1521 55 -48 0 -54 2 -42 14 33 30 437 274 463 278 15 3
27 4 27 2 0 -2 -54 -48 -120 -104 -66 -56 -120 -103 -120 -106 0 -2 74 45 165
106 146 98 205 127 205 102 0 -4 -39 -46 -86 -92 -144 -143 -134 -147 36 -16
108 84 170 126 186 126 32 0 32 -1 -84 -132 -51 -60 -91 -108 -88 -108 3 0 65
54 137 119 122 111 135 119 178 123 25 3 47 4 49 3 1 -1 -47 -62 -108 -135
-60 -72 -110 -134 -110 -136 0 -3 71 58 157 136 87 77 166 140 176 140 18 0
-5 -37 -131 -212 -18 -27 -32 -48 -29 -48 2 0 55 58 116 130 101 117 148 156
167 138 4 -5 -62 -125 -128 -235 -11 -18 -18 -33 -15 -33 11 0 198 251 192
259 -3 6 12 12 32 14 21 2 -21 4 -93 5 -72 1 -272 4 -445 7 l-314 6 -256 -178z
m1592 -167 c24 -28 29 -29 175 -41 l149 -12 -170 -1 -170 -2 -45 81 c-59 106
-60 114 -8 54 23 -27 55 -63 69 -79z m-726 -325 c-11 -5 -33 -12 -49 -17 -16
-5 -38 -22 -50 -37 -19 -25 -21 -45 -24 -178 -3 -123 -6 -149 -19 -149 -12 0
-14 23 -11 154 3 174 13 200 79 223 40 14 108 17 74 4z"/>
<path d="M3372 3908 c-13 -17 -133 -258 -128 -258 3 0 164 230 180 258 5 8 -1
12 -17 12 -14 0 -29 -6 -35 -12z"/>
<path d="M3465 3893 c-18 -44 -75 -217 -72 -219 3 -4 127 220 127 229 0 15
-48 6 -55 -10z"/>
<path d="M4350 3850 c-30 -11 -111 -36 -179 -55 -68 -19 -126 -36 -128 -39 -3
-2 4 -9 14 -14 13 -7 55 -1 142 19 69 16 126 27 128 25 4 -4 -183 -76 -198
-76 -8 0 -7 -5 2 -16 9 -11 22 -14 41 -10 20 4 38 -2 64 -19 33 -22 153 -65
183 -65 8 0 11 40 11 135 0 102 -3 135 -12 135 -7 -1 -38 -10 -68 -20z"/>
<path d="M3553 3739 c-12 -46 -21 -85 -19 -86 2 -2 16 21 31 50 24 46 27 59
19 87 -9 32 -10 30 -31 -51z"/>
<path d="M2292 3378 l3 -63 63 -3 62 -3 0 66 0 65 -65 0 -66 0 3 -62z"/>
<path d="M2524 3426 c-3 -7 -4 -35 -2 -62 l3 -49 63 -3 62 -3 0 66 0 65 -60 0
c-42 0 -62 -4 -66 -14z"/>
<path d="M3483 3393 c-21 -4 -23 -10 -23 -64 l0 -59 110 0 110 0 0 60 0 60
-74 0 c-41 0 -80 2 -88 4 -7 2 -23 1 -35 -1z"/>
<path d="M4305 3220 c-26 -28 -15 -31 12 -3 12 13 19 23 14 23 -4 0 -16 -9
-26 -20z"/>
<path d="M4385 3228 c11 -6 23 -16 27 -22 5 -8 8 -7 8 1 0 7 -9 17 -19 23 -27
14 -41 12 -16 -2z"/>
<path d="M4358 3210 c29 -12 28 -28 -3 -40 -14 -5 -25 -12 -25 -14 0 -3 7 -3
15 1 9 3 22 -3 31 -13 14 -18 15 -18 5 2 -7 15 -7 24 1 32 14 14 -7 42 -31 41
-11 0 -9 -3 7 -9z"/>
<path d="M4422 3170 c0 -14 2 -19 5 -12 2 6 2 18 0 25 -3 6 -5 1 -5 -13z"/>
<path d="M4290 3141 c0 -10 39 -46 43 -40 2 2 -7 14 -20 26 -13 12 -23 19 -23
14z"/>
<path d="M4406 3123 c-6 -14 -5 -15 5 -6 7 7 10 15 7 18 -3 3 -9 -2 -12 -12z"/>
<path d="M1270 2633 c-44 -23 -60 -39 -83 -83 -25 -48 -28 -63 -24 -114 7 -74
43 -129 107 -164 38 -20 54 -23 100 -17 83 9 92 9 127 -6 37 -15 41 -13 49 30
6 27 3 33 -14 37 l-20 6 20 45 c43 98 4 220 -85 266 -64 33 -114 33 -177 0z
m148 -73 c58 -36 77 -122 38 -176 -14 -18 -16 -18 -48 12 -63 60 -108 68 -108
20 0 -18 9 -30 28 -40 16 -8 34 -22 41 -30 12 -14 10 -16 -15 -16 -35 0 -89
31 -104 60 -6 12 -12 38 -12 59 -1 103 95 163 180 111z"/>
<path d="M3340 2642 c-21 -10 -42 -32 -54 -55 -16 -34 -17 -42 -4 -75 11 -29
27 -44 78 -73 74 -42 99 -71 80 -94 -16 -20 -80 -19 -108 1 -21 14 -25 14 -47
0 -30 -20 -31 -30 -5 -56 61 -61 193 -49 230 21 16 29 7 105 -14 128 -10 10
-44 33 -77 51 -33 17 -63 38 -66 46 -14 36 60 61 87 29 11 -13 16 -12 41 6 25
17 27 23 16 40 -14 23 -66 49 -99 49 -12 0 -39 -8 -58 -18z"/>
<path d="M5445 2645 c-76 -27 -135 -114 -135 -200 0 -16 11 -53 24 -82 51
-108 183 -147 273 -80 l32 23 -20 31 -20 32 -32 -19 c-84 -52 -177 6 -177 109
0 31 7 49 31 75 40 47 85 55 138 27 l40 -20 20 28 c20 27 20 29 3 44 -24 22
-86 47 -114 47 -13 -1 -41 -7 -63 -15z"/>
<path d="M457 2599 c-85 -190 -147 -330 -147 -334 0 -3 17 -5 38 -5 32 0 41 5
50 25 11 23 16 25 87 25 71 0 76 -2 87 -25 9 -20 18 -25 50 -25 21 0 38 2 38
5 0 9 -163 369 -171 379 -4 5 -19 -15 -32 -45z m32 -217 c-23 -2 -43 -1 -45 1
-3 3 5 26 18 52 l23 47 22 -49 23 -48 -41 -3z"/>
<path d="M810 2455 l0 -195 110 0 110 0 0 35 0 35 -75 0 -75 0 0 160 0 160
-35 0 -35 0 0 -195z"/>
<path d="M1700 2508 c0 -162 10 -196 69 -235 69 -46 165 -19 203 57 15 28 18
62 18 178 l0 142 -34 0 -34 0 -4 -139 c-3 -157 -13 -181 -73 -181 -60 0 -70
24 -73 181 l-4 139 -34 0 -34 0 0 -142z"/>
<path d="M2160 2455 l0 -195 35 0 35 0 0 195 0 195 -35 0 -35 0 0 -195z"/>
<path d="M2400 2455 l0 -195 114 0 113 0 -1 33 -1 32 -77 3 -78 3 0 159 0 160
-35 0 -35 0 0 -195z"/>
<path d="M2770 2455 l0 -195 115 0 115 0 0 35 0 34 -77 3 -78 3 0 40 0 40 68
3 67 3 0 34 0 34 -67 3 -68 3 -3 37 -3 37 78 3 78 3 3 38 3 37 -115 0 -116 0
0 -195z"/>
<path d="M3670 2503 c0 -130 2 -152 20 -181 61 -100 203 -94 250 11 16 35 20
66 20 180 l0 137 -40 0 -40 0 0 -140 c0 -127 -2 -142 -20 -160 -29 -29 -74
-26 -99 6 -19 24 -21 40 -21 160 l0 134 -35 0 -35 0 0 -147z"/>
<path d="M4240 2455 l0 -195 40 0 40 0 0 80 0 80 65 0 65 0 0 35 0 35 -65 0
-65 0 0 40 0 40 75 0 75 0 0 40 0 40 -115 0 -115 0 0 -195z"/>
<path d="M4620 2455 l0 -195 35 0 35 0 0 195 0 195 -35 0 -35 0 0 -195z"/>
<path d="M4860 2457 l0 -197 35 0 35 0 0 105 c0 58 2 105 5 105 3 0 54 -51
115 -112 l109 -113 1 203 0 202 -35 0 -35 0 0 -105 c0 -58 -3 -105 -7 -105 -4
0 -56 48 -115 107 l-108 108 0 -198z"/>
<path d="M5850 2468 c-45 -101 -84 -189 -87 -195 -4 -9 7 -13 34 -13 33 0 42
4 51 25 11 24 16 25 91 25 76 0 79 -1 85 -25 5 -21 12 -25 46 -25 22 0 40 4
40 8 0 11 -160 365 -169 375 -5 4 -45 -74 -91 -175z m110 -34 c11 -26 20 -48
20 -50 0 -2 -20 -4 -44 -4 l-45 0 21 50 c11 28 22 50 24 50 2 0 12 -21 24 -46z"/>
<path d="M3170 1929 c-10 -17 -8 -19 17 -18 15 1 35 -1 44 -5 16 -7 49 16 49
33 0 4 -22 8 -50 9 -40 1 -52 -3 -60 -19z"/>
<path d="M2568 1889 c-23 -13 -25 -54 -3 -45 13 4 15 -9 15 -84 0 -83 1 -90
20 -90 19 0 20 7 20 115 0 103 -2 115 -17 115 -10 0 -26 -5 -35 -11z"/>
<path d="M2688 1835 c-21 -35 -38 -77 -38 -93 0 -67 97 -99 139 -46 12 15 21
37 21 49 0 30 -37 75 -61 75 -24 0 -24 1 2 44 l21 36 -24 0 c-18 0 -31 -15
-60 -65z m67 -61 c19 -20 16 -43 -7 -58 -38 -23 -78 35 -42 61 23 17 29 16 49
-3z"/>
<path d="M2978 1853 c-11 -27 -34 -77 -49 -112 -16 -35 -29 -65 -29 -67 0 -13
41 -1 49 14 14 27 85 28 111 2 19 -19 50 -27 50 -13 0 17 -95 223 -102 223 -5
0 -18 -21 -30 -47z m47 -73 c20 -39 20 -40 -15 -40 -16 0 -30 4 -30 10 0 10
22 60 26 60 2 0 10 -13 19 -30z"/>
<path d="M3130 1785 c0 -107 1 -115 20 -115 17 0 19 8 22 69 l3 70 59 -70 c33
-38 63 -69 68 -69 4 0 8 52 8 115 0 108 -1 115 -20 115 -18 0 -20 -7 -20 -71
l0 -70 -61 70 c-34 39 -66 71 -70 71 -5 0 -9 -52 -9 -115z"/>
<path d="M3374 1866 c-28 -28 -34 -42 -34 -75 0 -76 41 -121 110 -121 67 0
110 47 110 120 0 34 -6 48 -34 76 -28 28 -42 34 -76 34 -34 0 -48 -6 -76 -34z
m123 -28 c48 -45 16 -128 -49 -128 -39 0 -68 32 -68 75 0 67 69 99 117 53z"/>
<path d="M3600 1873 c-11 -15 -18 -33 -15 -41 3 -7 5 -18 5 -23 0 -5 23 -20
51 -34 35 -18 49 -31 47 -43 -4 -23 -51 -27 -72 -7 -13 14 -19 15 -32 4 -24
-20 19 -59 66 -59 54 0 82 24 78 68 -3 33 -9 40 -51 62 -29 15 -46 31 -45 40
4 21 39 25 53 6 10 -13 15 -13 30 -2 17 12 17 14 -3 34 -32 32 -85 29 -112 -5z"/>
</g>
</svg>
